<?xml version="1.0" standalone="no"?>
<!DOCTYPE svg PUBLIC "-//W3C//DTD SVG 20010904//EN"
 "http://www.w3.org/TR/2001/REC-SVG-20010904/DTD/svg10.dtd">
<svg version="1.0" xmlns="http://www.w3.org/2000/svg"
 width="444.000000pt" height="444.000000pt" viewBox="0 0 444.000000 444.000000"
 preserveAspectRatio="xMidYMid meet">
<metadata>
Created by potrace 1.14, written by Peter Selinger 2001-2017
</metadata>
<g transform="translate(0.000000,444.000000) scale(0.100000,-0.100000)"
fill="#000000" stroke="none">
<path d="M2120 4418 c-8 -18 -20 -27 -34 -26 -19 1 -244 -9 -374 -16 -61 -4
-14 26 -560 -358 -170 -119 -313 -223 -319 -230 -10 -12 -49 -104 -149 -353
-25 -60 -49 -119 -54 -130 -5 -11 -48 -115 -95 -232 -87 -217 -94 -247 -75
-328 5 -22 11 -51 13 -65 3 -14 15 -79 27 -145 12 -66 24 -131 26 -145 6 -32
35 -189 40 -215 2 -11 8 -45 14 -75 6 -30 12 -66 15 -80 3 -14 10 -54 16 -90
6 -36 19 -77 28 -92 14 -23 105 -122 347 -377 45 -47 92 -98 105 -112 142
-155 226 -239 248 -248 22 -9 477 -125 536 -137 11 -2 101 -24 200 -49 99 -26
192 -48 207 -50 34 -4 70 5 218 57 63 22 120 41 125 43 6 1 17 5 25 8 8 4 146
51 305 105 160 54 299 104 310 111 11 7 97 110 190 228 94 118 180 227 192
241 73 87 232 292 244 312 15 29 15 25 23 115 4 39 9 81 11 95 2 14 6 56 10
93 3 37 7 82 10 100 8 58 17 145 30 292 3 39 8 81 10 95 8 50 18 176 18 212 0
26 -20 78 -67 170 -37 73 -133 264 -213 423 -80 160 -156 304 -169 321 -12 17
-69 58 -125 90 -56 33 -117 68 -135 79 -18 11 -91 54 -161 95 -70 41 -137 80
-148 87 -11 7 -27 15 -35 19 -8 5 -38 23 -67 41 -29 18 -54 33 -56 33 -3 0
-36 19 -73 42 -61 37 -76 42 -129 42 -55 0 -405 -13 -423 -15 -36 -6 -61 3
-64 24 -4 21 -5 21 -18 -5z"/>
</g>
</svg>
